<svg width="37" height="32" viewBox="0 0 37 32" fill="none" xmlns="http://www.w3.org/2000/svg">
<g clip-path="url(#clip0_610_16)">
<path d="M33.4353 14.4363H24.7425C24.0765 14.4354 23.4379 14.1704 22.967 13.6994C22.4961 13.2283 22.2312 12.5898 22.2305 11.9237V3.56613C22.2312 2.88586 22.5017 2.23364 22.9827 1.75256C23.4637 1.27149 24.1158 1.00084 24.7961 1H33.4353C34.1155 1.00084 34.7677 1.27149 35.2487 1.75256C35.7296 2.23364 36.0001 2.88586 36.0008 3.56613V11.8701C36.0001 12.5504 35.7296 13.2026 35.2487 13.6837C34.7677 14.1648 34.1155 14.4354 33.4353 14.4363ZM24.7961 2.0606C24.397 2.06116 24.0145 2.21998 23.7323 2.50221C23.4502 2.78445 23.2915 3.16706 23.2911 3.56613V11.9237C23.2915 12.3085 23.4446 12.6775 23.7167 12.9497C23.9887 13.2219 24.3577 13.3751 24.7425 13.3757H33.4353C33.8343 13.3751 34.2169 13.2163 34.499 12.934C34.7811 12.6518 34.9398 12.2692 34.9402 11.8701V3.56613C34.94 3.16702 34.7813 2.78432 34.4992 2.50206C34.217 2.21979 33.8344 2.06102 33.4353 2.0606H24.7961Z" fill="#D84141" stroke="#D84141" stroke-width="0.4"/>
<path d="M30.2619 18.802H20.7276C20.587 18.802 20.4521 18.7461 20.3526 18.6466C20.2532 18.5472 20.1973 18.4123 20.1973 18.2716V15.8694C20.1983 15.2087 20.4612 14.5753 20.9284 14.1081C21.3956 13.6409 22.029 13.3779 22.6897 13.377H30.2619C30.9226 13.3779 31.556 13.6409 32.0232 14.1081C32.4904 14.5753 32.7534 15.2087 32.7543 15.8694V16.309C32.7535 16.9698 32.4906 17.6033 32.0234 18.0707C31.5562 18.538 30.9227 18.801 30.2619 18.802ZM21.2574 17.7413H30.2619C30.6417 17.7413 31.0058 17.5905 31.2744 17.322C31.5429 17.0535 31.6937 16.6893 31.6937 16.3095V15.8699C31.6937 15.4902 31.5429 15.126 31.2744 14.8575C31.0058 14.589 30.6417 14.4381 30.2619 14.4381H22.6897C22.31 14.4381 21.9458 14.589 21.6773 14.8575C21.4088 15.126 21.2579 15.4902 21.2579 15.8699L21.2574 17.7413Z" fill="#D84141" stroke="#D84141" stroke-width="0.4"/>
<path d="M33.5992 27.0871H10.2197C10.0791 27.0871 9.94423 27.0312 9.84478 26.9318C9.74533 26.8323 9.68945 26.6974 9.68945 26.5568C9.68945 26.4161 9.74533 26.2812 9.84478 26.1818C9.94423 26.0823 10.0791 26.0265 10.2197 26.0265H33.5992C33.9479 26.0262 34.2829 25.8902 34.533 25.6471C34.7832 25.4041 34.9289 25.0732 34.9392 24.7246C34.1666 19.7159 30.315 18.825 30.1511 18.79C30.0134 18.761 29.8929 18.6785 29.816 18.5607C29.7392 18.4428 29.7122 18.2993 29.7412 18.1616C29.7702 18.0239 29.8527 17.9033 29.9705 17.8265C30.0884 17.7496 30.2319 17.7227 30.3696 17.7516C30.4173 17.7617 35.1243 18.8123 35.994 24.609C35.9978 24.6351 35.9998 24.6616 35.9998 24.688C35.9987 25.3242 35.7454 25.934 35.2954 26.3837C34.8453 26.8334 34.2354 27.0864 33.5992 27.0871Z" fill="#D84141" stroke="#D84141" stroke-width="0.4"/>
<path d="M20.7272 27.0873C20.6273 27.0872 20.5294 27.0589 20.4449 27.0056C20.3603 26.9523 20.2926 26.8762 20.2494 26.7861C20.2062 26.696 20.1894 26.5955 20.2008 26.4963C20.2123 26.397 20.2516 26.303 20.3141 26.225C23.5654 22.1735 20.4732 18.7743 20.3401 18.6322C20.244 18.5293 20.1928 18.3925 20.1976 18.2518C20.2024 18.1111 20.2629 17.9781 20.3658 17.8821C20.4687 17.786 20.6055 17.7347 20.7462 17.7396C20.8869 17.7444 21.0199 17.8049 21.1159 17.9078C21.1546 17.9497 24.9606 22.13 21.1414 26.889C21.0916 26.951 21.0286 27.001 20.9569 27.0353C20.8852 27.0696 20.8067 27.0874 20.7272 27.0873Z" fill="#D84141" stroke="#D84141" stroke-width="0.4"/>
<path d="M26.9067 31.2299C25.6669 31.2285 24.4783 30.7354 23.6017 29.8588C22.725 28.9821 22.2319 27.7935 22.2305 26.5537C22.2305 26.4131 22.2864 26.2782 22.3858 26.1788C22.4853 26.0793 22.6202 26.0234 22.7608 26.0234C22.9015 26.0234 23.0363 26.0793 23.1358 26.1788C23.2352 26.2782 23.2911 26.4131 23.2911 26.5537C23.2853 27.0322 23.3745 27.507 23.5536 27.9508C23.7327 28.3945 23.9981 28.7982 24.3344 29.1386C24.6707 29.479 25.0712 29.7492 25.5127 29.9337C25.9542 30.1181 26.4279 30.2131 26.9064 30.2131C27.3849 30.2131 27.8587 30.1181 28.3002 29.9337C28.7417 29.7492 29.1422 29.479 29.4785 29.1386C29.8148 28.7982 30.0802 28.3945 30.2592 27.9508C30.4383 27.507 30.5276 27.0322 30.5218 26.5537C30.5218 26.4131 30.5776 26.2782 30.6771 26.1788C30.7765 26.0793 30.9114 26.0234 31.0521 26.0234C31.1927 26.0234 31.3276 26.0793 31.4271 26.1788C31.5265 26.2782 31.5824 26.4131 31.5824 26.5537C31.5811 27.7935 31.0881 28.9821 30.2115 29.8587C29.335 30.7354 28.1464 31.2285 26.9067 31.2299Z" fill="#D84141" stroke="#D84141" stroke-width="0.4"/>
<path d="M29.1154 22.9444H26.667C26.5263 22.9444 26.3914 22.8885 26.292 22.7891C26.1925 22.6896 26.1367 22.5547 26.1367 22.4141C26.1367 22.2734 26.1925 22.1386 26.292 22.0391C26.3914 21.9397 26.5263 21.8838 26.667 21.8838H29.1143C29.2549 21.8838 29.3898 21.9397 29.4893 22.0391C29.5887 22.1386 29.6446 22.2734 29.6446 22.4141C29.6446 22.5547 29.5887 22.6896 29.4893 22.7891C29.3898 22.8885 29.2549 22.9444 29.1143 22.9444H29.1154Z" fill="#D84141" stroke="#D84141" stroke-width="0.4"/>
<path d="M5.87825 31.4326C4.91428 31.4334 3.97172 31.1484 3.16974 30.6136C2.36776 30.0787 1.74238 29.3181 1.37269 28.4278C1.003 27.5376 0.905592 26.5577 1.09279 25.6121C1.27999 24.6665 1.74338 23.7976 2.42438 23.1153C3.10537 22.4331 3.97339 21.9681 4.91865 21.7791C5.86391 21.5902 6.84398 21.6858 7.73492 22.0538C8.62586 22.4219 9.38765 23.0458 9.92397 23.8468C10.4603 24.6478 10.7471 25.5898 10.748 26.5538C10.7467 27.8458 10.2334 29.0845 9.32069 29.9989C8.40799 30.9133 7.17018 31.4288 5.87825 31.4326ZM5.87825 22.7457C5.12364 22.7449 4.38576 22.9679 3.75798 23.3867C3.13021 23.8054 2.64078 24.4009 2.35165 25.098C2.06251 25.795 1.98666 26.5621 2.13371 27.3022C2.28076 28.0424 2.64409 28.7222 3.17771 29.2558C3.71134 29.7893 4.39126 30.1526 5.13141 30.2995C5.87157 30.4465 6.63869 30.3705 7.33566 30.0813C8.03263 29.792 8.62812 29.3025 9.04676 28.6747C9.46539 28.0469 9.68835 27.3089 9.6874 26.5543C9.68488 25.5449 9.28274 24.5776 8.56891 23.8638C7.85509 23.1501 6.88767 22.7481 5.87825 22.7457Z" fill="#D84141" stroke="#D84141" stroke-width="0.4"/>
<path d="M13.9586 27.084C13.8754 27.084 13.7933 27.0644 13.719 27.0267C13.6447 26.9891 13.5803 26.9345 13.5311 26.8674C13.4818 26.8003 13.4491 26.7225 13.4354 26.6403C13.4218 26.5582 13.4278 26.474 13.4527 26.3946C13.708 25.5925 13.7866 24.7446 13.6833 23.9092C13.5799 23.0738 13.297 22.2707 12.8539 21.555C12.4108 20.8393 11.8181 20.228 11.1164 19.763C10.4148 19.2981 9.62078 18.9904 8.78899 18.8613C7.95721 18.7322 7.10733 18.7846 6.29772 19.015C5.4881 19.2453 4.73793 19.6482 4.09872 20.1958C3.45951 20.7435 2.9464 21.423 2.59462 22.1878C2.24284 22.9525 2.06073 23.7843 2.06079 24.626C2.057 24.932 2.08562 25.2376 2.14617 25.5376C2.15401 25.5735 2.15792 25.6101 2.15784 25.6468C2.15798 25.7879 2.10229 25.9233 2.00293 26.0235C1.90357 26.1236 1.76861 26.1804 1.62754 26.1814C1.49853 26.1817 1.37383 26.135 1.2768 26.0499C1.17977 25.9649 1.11706 25.8474 1.10042 25.7195C1.03072 25.3592 0.997141 24.9929 1.00019 24.626C1.00037 23.6314 1.21578 22.6486 1.63162 21.745C2.04746 20.8415 2.65388 20.0387 3.40927 19.3916C4.16466 18.7445 5.05111 18.2686 6.00779 17.9964C6.96446 17.7243 7.9687 17.6624 8.95156 17.8149C9.93442 17.9675 10.8726 18.3309 11.7018 18.8803C12.5309 19.4297 13.2314 20.1519 13.7551 20.9975C14.2788 21.8431 14.6133 22.792 14.7357 23.7791C14.858 24.7662 14.7654 25.768 14.464 26.7159C14.4296 26.8229 14.3622 26.9162 14.2713 26.9823C14.1805 27.0485 14.071 27.0841 13.9586 27.084Z" fill="#D84141" stroke="#D84141" stroke-width="0.4"/>
<path d="M14.2576 25.1568C14.1169 25.1568 13.982 25.101 13.8826 25.0015C13.7831 24.9021 13.7273 24.7672 13.7273 24.6265V14.7428C13.7439 13.7429 13.4155 12.7679 12.7973 11.9819C12.1791 11.196 11.3089 10.6471 10.3333 10.4277L10.2978 10.4213L8.40997 18.3939C8.39507 18.4628 8.36659 18.528 8.32618 18.5858C8.28577 18.6436 8.23425 18.6927 8.17463 18.7303C8.115 18.768 8.04848 18.7933 7.97894 18.8049C7.9094 18.8165 7.83825 18.8142 7.76964 18.7979C7.70103 18.7817 7.63635 18.752 7.57936 18.7105C7.52238 18.669 7.47425 18.6165 7.43778 18.5562C7.40132 18.4958 7.37725 18.4288 7.36698 18.3591C7.35672 18.2893 7.36046 18.2182 7.378 18.15L9.37405 9.71284C9.4018 9.58853 9.47406 9.47865 9.57721 9.40392C9.68036 9.3292 9.80728 9.29478 9.93405 9.30716C10.1316 9.32306 10.3282 9.3489 10.5232 9.38458C11.7483 9.63832 12.8457 10.3133 13.6248 11.2922C14.404 12.271 14.8155 13.492 14.7879 14.7428V24.6265C14.7879 24.7672 14.732 24.9021 14.6325 25.0015C14.5331 25.101 14.3982 25.1568 14.2576 25.1568Z" fill="#D84141" stroke="#D84141" stroke-width="0.4"/>
<path d="M16.4351 10.3651H7.89358C7.75293 10.3651 7.61805 10.3093 7.5186 10.2098C7.41915 10.1104 7.36328 9.97548 7.36328 9.83484V5.48636C7.36328 5.34571 7.41915 5.21083 7.5186 5.11138C7.61805 5.01193 7.75293 4.95605 7.89358 4.95605H9.67911C10.4787 4.95704 11.2453 5.27516 11.8107 5.84064C12.3761 6.40612 12.6941 7.17277 12.6949 7.97241V9.30241H16.4351C16.5758 9.30241 16.7107 9.35829 16.8101 9.45774C16.9096 9.55719 16.9655 9.69207 16.9655 9.83272C16.9655 9.97336 16.9096 10.1082 16.8101 10.2077C16.7107 10.3071 16.5758 10.363 16.4351 10.363V10.3651ZM8.42388 9.30453H11.6343V7.97453C11.6338 7.4561 11.4276 6.95905 11.0611 6.59241C10.6945 6.22578 10.1975 6.01948 9.67911 6.01878H8.42388V9.30453Z" fill="#D84141" stroke="#D84141" stroke-width="0.4"/>
<path d="M35.4705 6.40533H22.7608C22.6202 6.40533 22.4853 6.34946 22.3858 6.25001C22.2864 6.15056 22.2305 6.01567 22.2305 5.87503C22.2305 5.73438 22.2864 5.5995 22.3858 5.50005C22.4853 5.4006 22.6202 5.34473 22.7608 5.34473H35.4705C35.6112 5.34473 35.7461 5.4006 35.8455 5.50005C35.945 5.5995 36.0008 5.73438 36.0008 5.87503C36.0008 6.01567 35.945 6.15056 35.8455 6.25001C35.7461 6.34946 35.6112 6.40533 35.4705 6.40533Z" fill="#D84141" stroke="#D84141" stroke-width="0.4"/>
<path d="M5.8743 29.0181C5.38741 29.0182 4.91142 28.8739 4.50653 28.6035C4.10164 28.3331 3.78605 27.9486 3.59965 27.4988C3.41325 27.049 3.36442 26.5541 3.45935 26.0765C3.55427 25.599 3.78868 25.1603 4.13293 24.816C4.47718 24.4716 4.9158 24.2371 5.39333 24.1421C5.87086 24.0471 6.36585 24.0958 6.81569 24.2821C7.26553 24.4684 7.65002 24.7839 7.92053 25.1888C8.19105 25.5936 8.33543 26.0695 8.33543 26.5564C8.33473 27.209 8.07523 27.8346 7.61384 28.2961C7.15246 28.7576 6.52687 29.0172 5.8743 29.0181ZM5.8743 25.1559C5.59715 25.1558 5.3262 25.2379 5.09572 25.3918C4.86523 25.5457 4.68557 25.7645 4.57947 26.0206C4.47336 26.2766 4.44557 26.5583 4.49961 26.8302C4.55365 27.102 4.6871 27.3517 4.88307 27.5477C5.07905 27.7436 5.32874 27.8771 5.60057 27.9311C5.8724 27.9852 6.15415 27.9574 6.41018 27.8513C6.66621 27.7452 6.88502 27.5655 7.03893 27.335C7.19284 27.1045 7.27493 26.8336 7.27483 26.5564C7.27441 26.1851 7.12672 25.8291 6.86416 25.5666C6.6016 25.304 6.24562 25.1563 5.8743 25.1559Z" fill="#D84141" stroke="#D84141" stroke-width="0.4"/>
</g>
<defs>
<clipPath id="clip0_610_16">
<rect width="37" height="32" fill="white"/>
</clipPath>
</defs>
</svg>
