<svg width="85" height="85" viewBox="0 0 85 85" fill="none" xmlns="http://www.w3.org/2000/svg">
<g clip-path="url(#clip0_604_2)">
<path d="M84.9147 2.1851C85.0836 1.67892 84.9986 1.12243 84.6866 0.689463C84.3747 0.256494 83.8735 0 83.3399 0H34.8633C34.3298 0 33.8286 0.256494 33.5166 0.689463C33.2047 1.12227 33.1197 1.67892 33.2883 2.1851L36.4585 11.6951C34.3595 20.2803 33.2033 30.1617 33.2033 39.5882V44.0051C29.5774 42.4918 25.5043 41.8359 21.582 41.8359C7.7624 41.8359 0 49.5737 0 55.1171C0 56.9231 1.14783 59.7309 3.32033 61.1193V65.3639C1.38806 66.049 0 67.8943 0 70.0587C0 72.2228 1.38806 74.0681 3.32033 74.7535V76.6992C3.32033 81.2761 7.04404 85 11.6211 85H51.631C52.5476 85 53.291 84.2565 53.291 83.3399C53.291 82.4231 52.5476 81.6796 51.631 81.6796H38.1792C39.2238 80.2913 39.8437 78.5666 39.8437 76.6992V74.7535C41.7761 74.0681 43.1641 72.2228 43.1641 70.0587C43.1641 67.8943 41.7761 66.049 39.8437 65.3636V61.119C42.0163 59.7309 43.1641 56.9228 43.1641 55.1171C43.1641 51.8797 40.5861 48.2633 36.5234 45.7136V39.5882C36.5234 30.7108 37.5754 21.4268 39.4916 13.2812H78.7114C80.6276 21.4265 81.6796 30.7105 81.6796 39.5882V81.6796H66.5723C65.6554 81.6796 64.9122 82.4231 64.9122 83.3399C64.9122 84.2565 65.6554 85 66.5723 85H83.3399C84.2565 85 85 84.2565 85 83.3399V39.5882C85 30.1611 83.8437 20.28 81.7448 11.6951L84.9147 2.1851ZM44.16 3.32033V4.98046C44.16 5.89721 44.9035 6.64062 45.8204 6.64062C46.737 6.64062 47.4804 5.89721 47.4804 4.98046V3.32033H57.4413V4.98046C57.4413 5.89721 58.1848 6.64062 59.1016 6.64062C60.0182 6.64062 60.7617 5.89721 60.7617 4.98046V3.32033H70.7225V4.98046C70.7225 5.89721 71.466 6.64062 72.3829 6.64062C73.2995 6.64062 74.0429 5.89721 74.0429 4.98046V3.32033H81.0365L78.8228 9.96092H39.3802L37.1668 3.32033H44.16ZM11.6211 81.6796C8.87485 81.6796 6.64062 79.4455 6.64062 76.6992V75.0391H36.5234V76.6992C36.5234 79.4455 34.2893 81.6796 31.5429 81.6796H11.6211ZM38.1837 71.7187H4.98046C4.06507 71.7187 3.32033 70.9739 3.32033 70.0587C3.32033 69.1432 4.06507 68.3984 4.98046 68.3984H38.1837C39.0989 68.3984 39.8437 69.1432 39.8437 70.0587C39.8437 70.9739 39.0989 71.7187 38.1837 71.7187ZM36.5234 65.0783H32.5689L30.9088 61.7579H36.5234V65.0783ZM27.1967 61.7579L28.8569 65.0783H24.2682L22.608 61.7579H27.1967ZM18.8959 61.7579L20.5561 65.0783H15.9674L14.3072 61.7579H18.8959ZM10.5951 61.7579L12.2553 65.0783H6.64062V61.7579H10.5951ZM39.8437 55.1171C39.8437 55.9963 39.0929 57.8329 37.8522 58.4375H5.31185C4.07119 57.8329 3.32033 55.9963 3.32033 55.1171C3.32033 52.6481 6.50052 48.4052 13.2812 46.3324V50.1367C13.2812 51.0535 14.0245 51.7967 14.9414 51.7967C15.8583 51.7967 16.6016 51.0535 16.6016 50.1367V45.5569C17.6765 45.3781 18.7855 45.2574 19.9219 45.199V53.4571C19.9219 54.3737 20.6651 55.1171 21.582 55.1171C22.4989 55.1171 23.2422 54.3737 23.2422 53.4571V45.199C24.3786 45.2577 25.4877 45.3784 26.5625 45.5572V50.1367C26.5625 51.0535 27.3057 51.7967 28.2227 51.7967C29.1397 51.7967 29.8829 51.0535 29.8829 50.1367V46.3363C34.4239 47.7349 39.8437 51.3465 39.8437 55.1171Z" fill="#D84141"/>
<path d="M65.7421 16.6016H52.4608C51.5442 16.6016 50.8008 17.345 50.8008 18.2617C50.8008 19.1785 51.5442 19.9219 52.4608 19.9219H65.7421C66.6589 19.9219 67.4024 19.1785 67.4024 18.2617C67.4024 17.345 66.6589 16.6016 65.7421 16.6016Z" fill="#D84141"/>
<path d="M52.461 70.7227C53.3778 70.7227 54.1213 69.9795 54.1213 69.0626V53.864C58.0152 52.6505 60.7618 47.325 60.7618 42.5001V32.5392C60.7618 31.6224 60.0183 30.8789 59.1017 30.8789C58.1849 30.8789 57.4414 31.6224 57.4414 32.5392V40.8401H54.1213V32.5392C54.1213 31.6224 53.3778 30.8789 52.461 30.8789C51.5444 30.8789 50.8009 31.6224 50.8009 32.5392V40.8401H47.4805V32.5392C47.4805 31.6224 46.7371 30.8789 45.8205 30.8789C44.9036 30.8789 44.1602 31.6224 44.1602 32.5392V42.5001C44.1602 47.325 46.9068 52.6502 50.8009 53.864V69.0626C50.8009 69.9795 51.5444 70.7227 52.461 70.7227ZM47.6197 44.1587H57.3029C56.7407 47.6233 54.5497 50.8009 52.461 50.8009C50.3725 50.8009 48.1812 47.6233 47.6197 44.1587Z" fill="#D84141"/>
<path d="M64.082 32.5392V69.0626C64.082 69.9795 64.8255 70.7227 65.7421 70.7227C66.6589 70.7227 67.4024 69.9795 67.4024 69.0626V59.1017C67.4024 56.3554 69.6365 54.1213 72.3828 54.1213C73.2994 54.1213 74.0429 53.3778 74.0429 52.461V39.1797C74.0429 34.6028 70.3193 30.8789 65.7421 30.8789C64.8255 30.8789 64.082 31.6224 64.082 32.5392ZM67.4024 34.4838C69.335 35.1691 70.7225 37.0153 70.7225 39.1797V50.9678C69.4968 51.2177 68.3677 51.7388 67.4024 52.4649V34.4838Z" fill="#D84141"/>
<path d="M59.1017 85.0001C60.0186 85.0001 60.7618 84.2569 60.7618 83.34C60.7618 82.4232 60.0186 81.6797 59.1017 81.6797C58.1849 81.6797 57.4414 82.4232 57.4414 83.34C57.4414 84.2569 58.1849 85.0001 59.1017 85.0001Z" fill="#D84141"/>
</g>
<defs>
<clipPath id="clip0_604_2">
<rect width="85" height="85" fill="white"/>
</clipPath>
</defs>
</svg>
